<svg width="68" height="44" viewBox="0 0 68 44" fill="none" xmlns="http://www.w3.org/2000/svg">
<path d="M67.811 23.1299L60.051 2.15996C59.769 1.39996 59.207 0.789998 58.468 0.449998C57.73 0.109998 56.904 0.0801544 56.142 0.360154L18.301 14.3602C17.539 14.6402 16.932 15.2 16.593 15.94C16.253 16.68 16.221 17.5101 16.503 18.2701L24.264 39.24C24.545 40.01 25.107 40.61 25.846 40.95C26.251 41.14 26.682 41.23 27.115 41.23C27.472 41.23 27.829 41.1701 28.173 41.0401L66.013 27.0401H66.014C67.586 26.4601 68.393 24.7099 67.811 23.1299ZM54.062 4.37016L42.324 21.15L22.492 16.0501L54.062 4.37016ZM26.568 36.71L19.837 18.5101L35.427 22.5201L26.568 36.71ZM29.865 37.17L38.518 23.3201L42.587 24.3602C42.714 24.3902 42.841 24.41 42.966 24.41C43.456 24.41 43.924 24.1701 44.213 23.7601L46.622 20.3201L62.21 25.21L29.865 37.17ZM48.452 17.7L57.677 4.51006L64.411 22.71L48.452 17.7Z" fill="white"/>
<path d="M17.722 39.6598C17.431 38.8698 16.556 38.4699 15.768 38.7599L10.036 40.8798C9.24798 41.1698 8.84498 42.05 9.13698 42.84C9.36398 43.45 9.94498 43.83 10.564 43.83C10.739 43.83 10.917 43.7999 11.091 43.7399L16.823 41.6201C17.612 41.3201 18.014 40.4498 17.722 39.6598Z" fill="white"/>
<path d="M9.964 25.5399C9.672 24.7499 8.79699 24.3498 8.00999 24.6398L4.47099 25.9499C3.68299 26.2399 3.281 27.1198 3.572 27.8998C3.799 28.5198 4.38099 28.8998 4.99899 28.8998C5.17399 28.8998 5.35299 28.87 5.52699 28.8L9.065 27.4899C9.853 27.1999 10.256 26.3299 9.964 25.5399Z" fill="white"/>
<path d="M5.57698 37.06C5.28598 36.27 4.41099 35.8698 3.62299 36.1598L0.993988 37.1398C0.205988 37.4298 -0.197014 38.3 0.0949863 39.09C0.321986 39.7 0.902988 40.08 1.52199 40.08C1.69699 40.08 1.87498 40.0499 2.04898 39.9899L4.67899 39.0199C5.46699 38.7199 5.86898 37.85 5.57698 37.06Z" fill="white"/>
</svg>
